<svg width="31" height="29" viewBox="0 0 31 29" fill="none" xmlns="http://www.w3.org/2000/svg">
<path d="M29.0034 14.4885C29.0034 21.3783 23.1256 26.97 15.8686 26.97C8.61168 26.97 2.73389 21.3783 2.73389 14.4885C2.73389 7.59252 8.61168 2.00708 15.8686 2.00708C23.1256 2.00708 29.0034 7.59252 29.0034 14.4885Z" fill="#283544"/>
<path d="M22.0252 11.3302C21.9535 11.3699 20.2473 12.2084 20.2473 14.0676C20.3277 16.1878 22.4005 16.9314 22.436 16.9314C22.4005 16.9711 22.1231 17.9443 21.3014 18.9645C20.6494 19.8432 19.9256 20.7292 18.8266 20.7292C17.7811 20.7292 17.4059 20.1436 16.1996 20.1436C14.9042 20.1436 14.5377 20.7292 13.5459 20.7292C12.4468 20.7292 11.6695 19.7958 10.9818 18.9253C10.0885 17.7859 9.32921 15.998 9.3024 14.2812C9.28434 13.3715 9.4813 12.4772 9.98128 11.7177C10.687 10.6573 11.9468 9.93745 13.3227 9.91371C14.3768 9.88224 15.315 10.5546 15.9584 10.5546C16.5749 10.5546 17.7275 9.91371 19.0317 9.91371C19.5946 9.91423 21.0957 10.0644 22.0252 11.3302ZM15.8692 9.73208C15.6816 8.90131 16.1996 8.07054 16.6821 7.5406C17.2986 6.89972 18.2724 6.46472 19.1121 6.46472C19.1657 7.29549 18.826 8.11027 18.2188 8.70368C17.6739 9.34456 16.7357 9.82703 15.8692 9.73208Z" fill="white"/>
</svg>
