<svg width="22" height="16" viewBox="0 0 22 16" fill="none" xmlns="http://www.w3.org/2000/svg">
<g clip-path="url(#clip0_75_24)">
<rect width="22" height="16" rx="2" fill="white"/>
<path fill-rule="evenodd" clip-rule="evenodd" d="M0 0H9.42857V7.46667H0V0Z" fill="#1A47B8"/>
<path fill-rule="evenodd" clip-rule="evenodd" d="M9.42857 0V1.06667H22V0H9.42857ZM9.42857 2.13333V3.2H22V2.13333H9.42857ZM9.42857 4.26667V5.33333H22V4.26667H9.42857ZM9.42857 6.4V7.46667H22V6.4H9.42857ZM0 8.53333V9.6H22V8.53333H0ZM0 10.6667V11.7333H22V10.6667H0ZM0 12.8V13.8667H22V12.8H0ZM0 14.9333V16H22V14.9333H0Z" fill="#F93939"/>
<path fill-rule="evenodd" clip-rule="evenodd" d="M1.04785 1.06641V2.13307H2.09547V1.06641H1.04785ZM3.14309 1.06641V2.13307H4.19071V1.06641H3.14309ZM5.23833 1.06641V2.13307H6.28595V1.06641H5.23833ZM7.33357 1.06641V2.13307H8.38119V1.06641H7.33357ZM6.28595 2.13307V3.19974H7.33357V2.13307H6.28595ZM4.19071 2.13307V3.19974H5.23833V2.13307H4.19071ZM2.09547 2.13307V3.19974H3.14309V2.13307H2.09547ZM1.04785 3.19974V4.26641H2.09547V3.19974H1.04785ZM3.14309 3.19974V4.26641H4.19071V3.19974H3.14309ZM5.23833 3.19974V4.26641H6.28595V3.19974H5.23833ZM7.33357 3.19974V4.26641H8.38119V3.19974H7.33357ZM1.04785 5.33307V6.39974H2.09547V5.33307H1.04785ZM3.14309 5.33307V6.39974H4.19071V5.33307H3.14309ZM5.23833 5.33307V6.39974H6.28595V5.33307H5.23833ZM7.33357 5.33307V6.39974H8.38119V5.33307H7.33357ZM6.28595 4.26641V5.33307H7.33357V4.26641H6.28595ZM4.19071 4.26641V5.33307H5.23833V4.26641H4.19071ZM2.09547 4.26641V5.33307H3.14309V4.26641H2.09547Z" fill="white"/>
</g>
<defs>
<clipPath id="clip0_75_24">
<rect width="22" height="16" rx="2" fill="white"/>
</clipPath>
</defs>
</svg>
