<svg width="21" height="21" viewBox="0 0 21 21" fill="none" xmlns="http://www.w3.org/2000/svg">
<path d="M15.9204 15.0161L18.4205 17.515C18.5371 17.6357 18.6016 17.7974 18.6002 17.9652C18.5987 18.133 18.5314 18.2936 18.4127 18.4123C18.2941 18.5309 18.1335 18.5982 17.9657 18.5997C17.7979 18.6012 17.6362 18.5366 17.5155 18.42L15.0153 15.9199C13.3815 17.3197 11.269 18.0323 9.12116 17.9081C6.9733 17.7839 4.95701 16.8327 3.49539 15.254C2.03376 13.6753 1.24041 11.5918 1.28182 9.44073C1.32322 7.28968 2.19616 5.23828 3.71746 3.71698C5.23877 2.19568 7.29017 1.32273 9.44122 1.28133C11.5923 1.23992 13.6757 2.03327 15.2545 3.4949C16.8332 4.95653 17.7844 6.97282 17.9086 9.12068C18.0327 11.2685 17.3202 13.381 15.9204 15.0148V15.0161ZM9.60146 16.6419C11.4688 16.6419 13.2597 15.9001 14.5801 14.5797C15.9006 13.2592 16.6424 11.4683 16.6424 9.60098C16.6424 7.73361 15.9006 5.94272 14.5801 4.62229C13.2597 3.30187 11.4688 2.56006 9.60146 2.56006C7.7341 2.56006 5.94321 3.30187 4.62278 4.62229C3.30235 5.94272 2.56054 7.73361 2.56054 9.60098C2.56054 11.4683 3.30235 13.2592 4.62278 14.5797C5.94321 15.9001 7.7341 16.6419 9.60146 16.6419V16.6419Z" fill="#A2A3A4"/>
</svg>
