<svg width="28" height="27" viewBox="0 0 28 27" fill="none" xmlns="http://www.w3.org/2000/svg">
<path d="M25.915 13.7837C25.915 12.8308 25.8349 12.1354 25.6614 11.4142H14.3794V15.7153H21.0017C20.8682 16.7842 20.1472 18.3939 18.545 19.4756L18.5226 19.6196L22.0897 22.285L22.3368 22.3088C24.6065 20.2869 25.915 17.3122 25.915 13.7837" fill="#00AA11"/>
<path d="M14.3786 25.1163C17.6229 25.1163 20.3466 24.086 22.336 22.3089L18.5442 19.4757C17.5295 20.1582 16.1676 20.6347 14.3786 20.6347C11.201 20.6347 8.50402 18.613 7.54263 15.8185L7.40171 15.83L3.69255 18.5988L3.64404 18.7288C5.62003 22.5149 9.67886 25.1163 14.3786 25.1163Z" fill="#34A853"/>
<path d="M7.54334 15.8185C7.28967 15.0974 7.14286 14.3247 7.14286 13.5263C7.14286 12.7278 7.28967 11.9552 7.52999 11.234L7.52327 11.0805L3.76762 8.26727L3.64474 8.32365C2.83034 9.89474 2.36304 11.659 2.36304 13.5263C2.36304 15.3935 2.83034 17.1577 3.64474 18.7288L7.54334 15.8185" fill="#FBBC05"/>
<path d="M14.3787 6.4178C16.635 6.4178 18.1571 7.35787 19.0249 8.14346L22.4162 4.94978C20.3334 3.08252 17.623 1.9364 14.3787 1.9364C9.6789 1.9364 5.62004 4.53767 3.64404 8.32368L7.5293 11.2341C8.50405 8.43962 11.201 6.4178 14.3787 6.4178" fill="#EB4335"/>
</svg>
