<svg width="8" height="611" viewBox="0 0 8 611" fill="none" xmlns="http://www.w3.org/2000/svg">
<path d="M0.414551 23.625C0.414551 25.4813 2.01516 27 3.97146 27C5.92776 27 7.52837 25.4813 7.52837 23.625C7.52837 21.7687 5.92776 20.25 3.97146 20.25C2.01516 20.25 0.414551 21.7687 0.414551 23.625ZM0.414551 3.375C0.414551 5.23125 2.01516 6.75 3.97146 6.75C5.92776 6.75 7.52837 5.23125 7.52837 3.375C7.52837 1.51875 5.92776 0 3.97146 0C2.01516 0 0.414551 1.51875 0.414551 3.375ZM0.414551 13.5C0.414551 15.3563 2.01516 16.875 3.97146 16.875C5.92776 16.875 7.52837 15.3563 7.52837 13.5C7.52837 11.6437 5.92776 10.125 3.97146 10.125C2.01516 10.125 0.414551 11.6437 0.414551 13.5Z" fill="#FF4343"/>
<path d="M0.414551 96.625C0.414551 98.4813 2.01516 100 3.97146 100C5.92776 100 7.52837 98.4813 7.52837 96.625C7.52837 94.7687 5.92776 93.25 3.97146 93.25C2.01516 93.25 0.414551 94.7687 0.414551 96.625ZM0.414551 76.375C0.414551 78.2313 2.01516 79.75 3.97146 79.75C5.92776 79.75 7.52837 78.2313 7.52837 76.375C7.52837 74.5187 5.92776 73 3.97146 73C2.01516 73 0.414551 74.5187 0.414551 76.375ZM0.414551 86.5C0.414551 88.3563 2.01516 89.875 3.97146 89.875C5.92776 89.875 7.52837 88.3563 7.52837 86.5C7.52837 84.6437 5.92776 83.125 3.97146 83.125C2.01516 83.125 0.414551 84.6437 0.414551 86.5Z" fill="#FF4343"/>
<path d="M0.414551 169.625C0.414551 171.481 2.01516 173 3.97146 173C5.92776 173 7.52837 171.481 7.52837 169.625C7.52837 167.769 5.92776 166.25 3.97146 166.25C2.01516 166.25 0.414551 167.769 0.414551 169.625ZM0.414551 149.375C0.414551 151.231 2.01516 152.75 3.97146 152.75C5.92776 152.75 7.52837 151.231 7.52837 149.375C7.52837 147.519 5.92776 146 3.97146 146C2.01516 146 0.414551 147.519 0.414551 149.375ZM0.414551 159.5C0.414551 161.356 2.01516 162.875 3.97146 162.875C5.92776 162.875 7.52837 161.356 7.52837 159.5C7.52837 157.644 5.92776 156.125 3.97146 156.125C2.01516 156.125 0.414551 157.644 0.414551 159.5Z" fill="#FF4343"/>
<path d="M0.414551 242.625C0.414551 244.481 2.01516 246 3.97146 246C5.92776 246 7.52837 244.481 7.52837 242.625C7.52837 240.769 5.92776 239.25 3.97146 239.25C2.01516 239.25 0.414551 240.769 0.414551 242.625ZM0.414551 222.375C0.414551 224.231 2.01516 225.75 3.97146 225.75C5.92776 225.75 7.52837 224.231 7.52837 222.375C7.52837 220.519 5.92776 219 3.97146 219C2.01516 219 0.414551 220.519 0.414551 222.375ZM0.414551 232.5C0.414551 234.356 2.01516 235.875 3.97146 235.875C5.92776 235.875 7.52837 234.356 7.52837 232.5C7.52837 230.644 5.92776 229.125 3.97146 229.125C2.01516 229.125 0.414551 230.644 0.414551 232.5Z" fill="#FF4343"/>
<path d="M0.414551 315.625C0.414551 317.481 2.01516 319 3.97146 319C5.92776 319 7.52837 317.481 7.52837 315.625C7.52837 313.769 5.92776 312.25 3.97146 312.25C2.01516 312.25 0.414551 313.769 0.414551 315.625ZM0.414551 295.375C0.414551 297.231 2.01516 298.75 3.97146 298.75C5.92776 298.75 7.52837 297.231 7.52837 295.375C7.52837 293.519 5.92776 292 3.97146 292C2.01516 292 0.414551 293.519 0.414551 295.375ZM0.414551 305.5C0.414551 307.356 2.01516 308.875 3.97146 308.875C5.92776 308.875 7.52837 307.356 7.52837 305.5C7.52837 303.644 5.92776 302.125 3.97146 302.125C2.01516 302.125 0.414551 303.644 0.414551 305.5Z" fill="#FF4343"/>
<path d="M0.414551 388.625C0.414551 390.481 2.01516 392 3.97146 392C5.92776 392 7.52837 390.481 7.52837 388.625C7.52837 386.769 5.92776 385.25 3.97146 385.25C2.01516 385.25 0.414551 386.769 0.414551 388.625ZM0.414551 368.375C0.414551 370.231 2.01516 371.75 3.97146 371.75C5.92776 371.75 7.52837 370.231 7.52837 368.375C7.52837 366.519 5.92776 365 3.97146 365C2.01516 365 0.414551 366.519 0.414551 368.375ZM0.414551 378.5C0.414551 380.356 2.01516 381.875 3.97146 381.875C5.92776 381.875 7.52837 380.356 7.52837 378.5C7.52837 376.644 5.92776 375.125 3.97146 375.125C2.01516 375.125 0.414551 376.644 0.414551 378.5Z" fill="#FF4343"/>
<path d="M0.414551 461.625C0.414551 463.481 2.01516 465 3.97146 465C5.92776 465 7.52837 463.481 7.52837 461.625C7.52837 459.769 5.92776 458.25 3.97146 458.25C2.01516 458.25 0.414551 459.769 0.414551 461.625ZM0.414551 441.375C0.414551 443.231 2.01516 444.75 3.97146 444.75C5.92776 444.75 7.52837 443.231 7.52837 441.375C7.52837 439.519 5.92776 438 3.97146 438C2.01516 438 0.414551 439.519 0.414551 441.375ZM0.414551 451.5C0.414551 453.356 2.01516 454.875 3.97146 454.875C5.92776 454.875 7.52837 453.356 7.52837 451.5C7.52837 449.644 5.92776 448.125 3.97146 448.125C2.01516 448.125 0.414551 449.644 0.414551 451.5Z" fill="#FF4343"/>
<path d="M0.414551 534.625C0.414551 536.481 2.01516 538 3.97146 538C5.92776 538 7.52837 536.481 7.52837 534.625C7.52837 532.769 5.92776 531.25 3.97146 531.25C2.01516 531.25 0.414551 532.769 0.414551 534.625ZM0.414551 514.375C0.414551 516.231 2.01516 517.75 3.97146 517.75C5.92776 517.75 7.52837 516.231 7.52837 514.375C7.52837 512.519 5.92776 511 3.97146 511C2.01516 511 0.414551 512.519 0.414551 514.375ZM0.414551 524.5C0.414551 526.356 2.01516 527.875 3.97146 527.875C5.92776 527.875 7.52837 526.356 7.52837 524.5C7.52837 522.644 5.92776 521.125 3.97146 521.125C2.01516 521.125 0.414551 522.644 0.414551 524.5Z" fill="#FF4343"/>
<path d="M0.414551 607.625C0.414551 609.481 2.01516 611 3.97146 611C5.92776 611 7.52837 609.481 7.52837 607.625C7.52837 605.769 5.92776 604.25 3.97146 604.25C2.01516 604.25 0.414551 605.769 0.414551 607.625ZM0.414551 587.375C0.414551 589.231 2.01516 590.75 3.97146 590.75C5.92776 590.75 7.52837 589.231 7.52837 587.375C7.52837 585.519 5.92776 584 3.97146 584C2.01516 584 0.414551 585.519 0.414551 587.375ZM0.414551 597.5C0.414551 599.356 2.01516 600.875 3.97146 600.875C5.92776 600.875 7.52837 599.356 7.52837 597.5C7.52837 595.644 5.92776 594.125 3.97146 594.125C2.01516 594.125 0.414551 595.644 0.414551 597.5Z" fill="#FF4343"/>
</svg>
