<svg width="38" height="693" viewBox="0 0 38 693" fill="none" xmlns="http://www.w3.org/2000/svg">
<g filter="url(#filter0_d_70_331)">
<rect x="4" width="17" height="682" rx="8.5" fill="#F0F0F0"/>
<rect x="4" y="24" width="17" height="56" rx="8.5" fill="#6E6E6E"/>
<path d="M4 661H21V676.5C21 681.194 17.1944 685 12.5 685V685C7.80558 685 4 681.194 4 676.5V661Z" fill="white"/>
<path d="M24.1026 669.057L23.2034 670.183L28.2329 676.424L33.2625 670.121L32.3632 669.005L28.2329 674.181L24.1026 669.057Z" fill="black"/>
<path d="M4 8.5C4 3.80558 7.80558 0 12.5 0V0C17.1944 0 21 3.80558 21 8.5V24H4V8.5Z" fill="white"/>
<path d="M32.3632 15.3981L33.2625 14.2713L28.2329 8.03107L23.2034 14.3334L24.1026 15.4491L28.2329 10.2735L32.3632 15.3981Z" fill="black"/>
</g>
<defs>
<filter id="filter0_d_70_331" x="0" y="0" width="37.2625" height="693" filterUnits="userSpaceOnUse" color-interpolation-filters="sRGB">
<feFlood flood-opacity="0" result="BackgroundImageFix"/>
<feColorMatrix in="SourceAlpha" type="matrix" values="0 0 0 0 0 0 0 0 0 0 0 0 0 0 0 0 0 0 127 0" result="hardAlpha"/>
<feOffset dy="4"/>
<feGaussianBlur stdDeviation="2"/>
<feComposite in2="hardAlpha" operator="out"/>
<feColorMatrix type="matrix" values="0 0 0 0 0 0 0 0 0 0 0 0 0 0 0 0 0 0 0.25 0"/>
<feBlend mode="normal" in2="BackgroundImageFix" result="effect1_dropShadow_70_331"/>
<feBlend mode="normal" in="SourceGraphic" in2="effect1_dropShadow_70_331" result="shape"/>
</filter>
</defs>
</svg>
