<svg width="32" height="16" viewBox="0 0 32 16" fill="none" xmlns="http://www.w3.org/2000/svg">
<rect width="16" height="16" rx="2" fill="#0B5FFF"/>
<mask id="mask0_34_227" style="mask-type:alpha" maskUnits="userSpaceOnUse" x="3" y="5" width="10" height="7">
<path d="M6.24594 10.5619L4.34682 8.66279C4.24456 8.56031 4.10574 8.50272 3.96097 8.50272C3.8162 8.50272 3.67738 8.56031 3.57512 8.66279C3.36168 8.87624 3.36168 9.22104 3.57512 9.43448L5.86284 11.7222C6.07628 11.9356 6.42108 11.9356 6.63453 11.7222L12.425 5.93177C12.6384 5.71832 12.6384 5.37352 12.425 5.16008C12.3227 5.05759 12.1839 5 12.0391 5C11.8943 5 11.7555 5.05759 11.6533 5.16008L6.24594 10.5619Z" fill="black"/>
</mask>
<g mask="url(#mask0_34_227)">
<rect width="16" height="16" fill="white"/>
</g>
</svg>
