<svg width="23" height="20" viewBox="0 0 23 20" fill="none" xmlns="http://www.w3.org/2000/svg">
<g clip-path="url(#clip0_2_540)">
<path d="M22.6344 9.33126C22.431 9.09468 17.583 3.53845 11.3913 3.53845C5.1996 3.53845 0.351434 9.09468 0.148189 9.33103C-0.0445135 9.55548 -0.0445135 9.85989 0.148189 10.0843C0.351434 10.3209 5.1996 15.8771 11.3913 15.8771C17.583 15.8771 22.431 10.3209 22.6344 10.0845C22.8274 9.86012 22.8274 9.55548 22.6344 9.33126ZM11.3913 14.6007C6.83046 14.6007 2.88028 10.913 1.71094 9.70736C2.87876 8.50071 6.82067 4.81486 11.3913 4.81486C15.9519 4.81486 19.9018 8.502 21.0717 9.70823C19.9038 10.9148 15.9619 14.6007 11.3913 14.6007Z" fill="#8E8E8E"/>
<path d="M11.3913 5.87854C8.90725 5.87854 6.88623 7.59639 6.88623 9.70781C6.88623 11.8192 8.90725 13.5371 11.3913 13.5371C13.8753 13.5371 15.8964 11.8192 15.8964 9.70781C15.8964 7.59639 13.8753 5.87854 11.3913 5.87854ZM11.3913 12.2606C9.73518 12.2606 8.38795 11.1155 8.38795 9.70781C8.38795 8.30016 9.73522 7.15499 11.3913 7.15499C13.0474 7.15499 14.3946 8.30016 14.3946 9.70781C14.3946 11.1155 13.0474 12.2606 11.3913 12.2606Z" fill="#8E8E8E"/>
</g>
<defs>
<clipPath id="clip0_2_540">
<rect width="22.7755" height="19.359" fill="white" transform="translate(0.00366211 0.0283203)"/>
</clipPath>
</defs>
</svg>
