<svg width="74" height="37" viewBox="0 0 74 37" fill="none" xmlns="http://www.w3.org/2000/svg">
<path d="M22.7539 8.86589C23.1922 9.30108 23.1935 10.0096 22.7567 10.4463L15.4918 17.7112C15.0562 18.1468 15.0562 18.8532 15.4918 19.2888L22.7567 26.5537C23.1935 26.9904 23.1922 27.6989 22.7539 28.1341L21.6007 29.2793C21.1646 29.7123 20.4604 29.711 20.0259 29.2765L10.0382 19.2888C9.60254 18.8532 9.60254 18.1468 10.0382 17.7112L20.0259 7.72353C20.4604 7.28897 21.1646 7.28772 21.6007 7.72074L22.7539 8.86589Z" fill="#FF4343"/>
<path d="M51.2461 28.1341C50.8078 27.6989 50.8065 26.9904 51.2433 26.5537L58.5082 19.2888C58.9438 18.8532 58.9438 18.1468 58.5082 17.7112L51.2433 10.4463C50.8065 10.0096 50.8078 9.30108 51.2461 8.86589L52.3993 7.72075C52.8354 7.28773 53.5396 7.28897 53.9741 7.72353L63.9618 17.7112C64.3975 18.1468 64.3975 18.8532 63.9618 19.2888L53.9741 29.2765C53.5396 29.711 52.8354 29.7123 52.3993 29.2793L51.2461 28.1341Z" fill="#FF4343"/>
</svg>
