<svg width="24" height="24" viewBox="0 0 24 24" fill="none" xmlns="http://www.w3.org/2000/svg">
<path d="M20.2866 19.0342L23.751 22.4969C23.9126 22.6642 24.002 22.8882 24 23.1208C23.9979 23.3533 23.9047 23.5758 23.7402 23.7402C23.5758 23.9047 23.3533 23.9979 23.1208 24C22.8882 24.002 22.6641 23.9126 22.4969 23.751L19.0324 20.2866C16.7685 22.2262 13.8413 23.2137 10.865 23.0416C7.88875 22.8696 5.09481 21.5515 3.06945 19.3638C1.04409 17.1762 -0.0552377 14.2892 0.00213803 11.3085C0.0595138 8.32783 1.26914 5.48523 3.37718 3.37718C5.48523 1.26914 8.32783 0.0595138 11.3085 0.00213803C14.2892 -0.0552377 17.1762 1.04409 19.3638 3.06945C21.5514 5.09481 22.8696 7.88875 23.0416 10.865C23.2137 13.8413 22.2262 16.7685 20.2866 19.0324V19.0342ZM11.5306 21.2871C14.1181 21.2871 16.5997 20.2591 18.4294 18.4294C20.2591 16.5997 21.2871 14.1181 21.2871 11.5306C21.2871 8.94297 20.2591 6.46137 18.4294 4.63167C16.5997 2.80197 14.1181 1.77405 11.5306 1.77405C8.94297 1.77405 6.46137 2.80197 4.63167 4.63167C2.80197 6.46137 1.77405 8.94297 1.77405 11.5306C1.77405 14.1181 2.80197 16.5997 4.63167 18.4294C6.46137 20.2591 8.94297 21.2871 11.5306 21.2871Z" fill="#01468B"/>
</svg>
