<svg width="8" height="27" viewBox="0 0 8 27" fill="none" xmlns="http://www.w3.org/2000/svg">
<path d="M0.365723 23.625C0.365723 25.4813 1.96633 27 3.92263 27C5.87893 27 7.47954 25.4813 7.47954 23.625C7.47954 21.7687 5.87893 20.25 3.92263 20.25C1.96633 20.25 0.365723 21.7687 0.365723 23.625ZM0.365723 3.375C0.365723 5.23125 1.96633 6.75 3.92263 6.75C5.87893 6.75 7.47954 5.23125 7.47954 3.375C7.47954 1.51875 5.87893 0 3.92263 0C1.96633 0 0.365723 1.51875 0.365723 3.375ZM0.365723 13.5C0.365723 15.3563 1.96633 16.875 3.92263 16.875C5.87893 16.875 7.47954 15.3563 7.47954 13.5C7.47954 11.6437 5.87893 10.125 3.92263 10.125C1.96633 10.125 0.365723 11.6437 0.365723 13.5Z" fill="#FF4343"/>
</svg>
